<?xml version="1.0" encoding="UTF-8" standalone="no"?>
<!-- Created with Inkscape (http://www.inkscape.org/) -->

<svg
   xmlns:dc="http://purl.org/dc/elements/1.1/"
   xmlns:cc="http://creativecommons.org/ns#"
   xmlns:rdf="http://www.w3.org/1999/02/22-rdf-syntax-ns#"
   xmlns:svg="http://www.w3.org/2000/svg"
   xmlns="http://www.w3.org/2000/svg"
   xmlns:sodipodi="http://sodipodi.sourceforge.net/DTD/sodipodi-0.dtd"
   xmlns:inkscape="http://www.inkscape.org/namespaces/inkscape"
   width="585"
   height="360"
   id="svg2"
   version="1.1"
   inkscape:version="0.91 r13725"
   sodipodi:docname="STD_90700 Reset assertion and deassertion.svg">
  <defs
     id="defs4">
    <inkscape:path-effect
       effect="skeletal"
       id="path-effect4323"
       is_visible="true"
       pattern="m 49.497475,178.41002 c 0,-2.76 2.24,-5 5,-5 2.76,0 5,2.24 5,5 0,2.76 -2.24,5 -5,5 -2.76,0 -5,-2.24 -5,-5 z"
       copytype="single_stretched"
       prop_scale="1"
       scale_y_rel="false"
       spacing="0"
       normal_offset="0"
       tang_offset="0"
       prop_units="false"
       vertical_pattern="false"
       fuse_tolerance="0" />
    <inkscape:path-effect
       effect="powerstroke"
       id="path-effect4319"
       is_visible="true"
       offset_points="0,0.5"
       sort_points="true"
       interpolator_type="Linear"
       interpolator_beta="0.2"
       start_linecap_type="zerowidth"
       linejoin_type="round"
       miter_limit="4"
       end_linecap_type="zerowidth"
       cusp_linecap_type="round" />
    <inkscape:path-effect
       effect="powerstroke"
       id="path-effect4315"
       is_visible="true"
       offset_points="0,0.5"
       sort_points="true"
       interpolator_type="Linear"
       interpolator_beta="0.2"
       start_linecap_type="zerowidth"
       linejoin_type="round"
       miter_limit="4"
       end_linecap_type="zerowidth"
       cusp_linecap_type="round" />
    <inkscape:path-effect
       effect="spiro"
       id="path-effect4313"
       is_visible="true" />
    <inkscape:path-effect
       effect="skeletal"
       id="path-effect4298"
       is_visible="true"
       pattern="m 49.497475,178.41002 c 0,-2.76 2.24,-5 5,-5 2.76,0 5,2.24 5,5 0,2.76 -2.24,5 -5,5 -2.76,0 -5,-2.24 -5,-5 z"
       copytype="single_stretched"
       prop_scale="1"
       scale_y_rel="false"
       spacing="0"
       normal_offset="0"
       tang_offset="0"
       prop_units="false"
       vertical_pattern="false"
       fuse_tolerance="0" />
    <inkscape:path-effect
       effect="spiro"
       id="path-effect4296"
       is_visible="true" />
    <inkscape:path-effect
       effect="skeletal"
       id="path-effect4292"
       is_visible="true"
       pattern="m 49.497475,178.41002 c 0,-2.76 2.24,-5 5,-5 2.76,0 5,2.24 5,5 0,2.76 -2.24,5 -5,5 -2.76,0 -5,-2.24 -5,-5 z"
       copytype="single_stretched"
       prop_scale="1"
       scale_y_rel="false"
       spacing="0"
       normal_offset="0"
       tang_offset="0"
       prop_units="false"
       vertical_pattern="false"
       fuse_tolerance="0" />
    <inkscape:path-effect
       effect="spiro"
       id="path-effect4290"
       is_visible="true" />
    <inkscape:path-effect
       effect="skeletal"
       id="path-effect4275"
       is_visible="true"
       pattern="m 49.497475,178.41002 c 0,-2.76 2.24,-5 5,-5 2.76,0 5,2.24 5,5 0,2.76 -2.24,5 -5,5 -2.76,0 -5,-2.24 -5,-5 z"
       copytype="single_stretched"
       prop_scale="1"
       scale_y_rel="false"
       spacing="0"
       normal_offset="0"
       tang_offset="0"
       prop_units="false"
       vertical_pattern="false"
       fuse_tolerance="0" />
    <inkscape:path-effect
       effect="spiro"
       id="path-effect4273"
       is_visible="true" />
    <inkscape:path-effect
       effect="powerstroke"
       id="path-effect4269"
       is_visible="true"
       offset_points="0,0.5"
       sort_points="true"
       interpolator_type="Linear"
       interpolator_beta="0.2"
       start_linecap_type="zerowidth"
       linejoin_type="round"
       miter_limit="4"
       end_linecap_type="zerowidth"
       cusp_linecap_type="round" />
    <inkscape:path-effect
       effect="spiro"
       id="path-effect4267"
       is_visible="true" />
    <inkscape:path-effect
       effect="powerstroke"
       id="path-effect4263"
       is_visible="true"
       offset_points="0,0.5"
       sort_points="true"
       interpolator_type="Linear"
       interpolator_beta="0.2"
       start_linecap_type="zerowidth"
       linejoin_type="round"
       miter_limit="4"
       end_linecap_type="zerowidth"
       cusp_linecap_type="round" />
    <inkscape:path-effect
       effect="spiro"
       id="path-effect4261"
       is_visible="true" />
    <inkscape:path-effect
       effect="powerstroke"
       id="path-effect4257"
       is_visible="true"
       offset_points="0,0.5"
       sort_points="true"
       interpolator_type="Linear"
       interpolator_beta="0.2"
       start_linecap_type="zerowidth"
       linejoin_type="round"
       miter_limit="4"
       end_linecap_type="zerowidth"
       cusp_linecap_type="round" />
    <inkscape:path-effect
       effect="spiro"
       id="path-effect4255"
       is_visible="true" />
    <inkscape:path-effect
       effect="powerstroke"
       id="path-effect4251"
       is_visible="true"
       offset_points="0,0.5"
       sort_points="true"
       interpolator_type="Linear"
       interpolator_beta="0.2"
       start_linecap_type="zerowidth"
       linejoin_type="round"
       miter_limit="4"
       end_linecap_type="zerowidth"
       cusp_linecap_type="round" />
    <inkscape:path-effect
       effect="spiro"
       id="path-effect4249"
       is_visible="true" />
    <inkscape:path-effect
       effect="powerstroke"
       id="path-effect4245"
       is_visible="true"
       offset_points="0,0.5"
       sort_points="true"
       interpolator_type="Linear"
       interpolator_beta="0.2"
       start_linecap_type="zerowidth"
       linejoin_type="round"
       miter_limit="4"
       end_linecap_type="zerowidth"
       cusp_linecap_type="round" />
    <inkscape:path-effect
       effect="spiro"
       id="path-effect4243"
       is_visible="true" />
    <inkscape:path-effect
       effect="powerstroke"
       id="path-effect4239"
       is_visible="true"
       offset_points="0,0.5"
       sort_points="true"
       interpolator_type="Linear"
       interpolator_beta="0.2"
       start_linecap_type="zerowidth"
       linejoin_type="round"
       miter_limit="4"
       end_linecap_type="zerowidth"
       cusp_linecap_type="round" />
    <inkscape:path-effect
       effect="spiro"
       id="path-effect4237"
       is_visible="true" />
    <symbol
       id="ToiletsMen">
      <title
         id="title4753">Toilets - Men</title>
      <g
         style="stroke:none"
         id="g4755">
        <circle
           cx="36"
           cy="9"
           r="5"
           id="circle4757" />
        <path
           d="m 24,22 0,15.5 a 2.25,2.25 0 0 0 4.5,0 l 0,-14.5 1,0 0,39.5 a 3,3 0 0 0 6,0 l 0,-22.5 1,0 0,22.5 a 3,3 0 0 0 6,0 l 0,-39.5 1,0 0,14.5 a 2.25,2.25 0 0 0 4.5,0 L 48,22 a 7,7 0 0 0 -7,-7 l -10,0 a 7,7 0 0 0 -7,7 z"
           id="path4759"
           inkscape:connector-curvature="0" />
      </g>
    </symbol>
    <symbol
       id="DrinkingFountain">
      <title
         id="title4851">Drinking Fountain</title>
      <g
         style="stroke:none"
         id="g4853">
        <circle
           cx="45"
           cy="16"
           r="5.5"
           id="circle4855" />
        <path
           d="m 34,28.5 0,5 a 2.5,2.5 0 0 0 0.75,1.75 l 6.5,6.5 a 2.475,2.475 0 0 0 3.5,-3.5 L 39,32.5 l 0,-10 a 5.5,5.5 0 0 0 -8,-5 L 19,24 a 5,5 0 0 0 -3,5 l 0,32.5 a 4,4 0 0 0 8,0 l 0,-27 z"
           id="path4857"
           inkscape:connector-curvature="0" />
        <path
           d="m 54.5,45 7,0 0,-16 -17,0 a 2.5,2.5 0 0 0 -1.75,4.25 z"
           id="path4859"
           inkscape:connector-curvature="0" />
        <!-- Water Drops -->
        <circle
           cx="47.75"
           cy="27.25"
           r="0.69999999"
           id="circle4861" />
        <circle
           cx="49.5"
           cy="27.25"
           r="0.69999999"
           id="circle4863" />
        <circle
           cx="47.75"
           cy="25.25"
           r="0.69999999"
           id="circle4865" />
        <circle
           cx="49.75"
           cy="25.25"
           r="0.69999999"
           id="circle4867" />
        <circle
           cx="48.5"
           cy="23.25"
           r="0.69999999"
           id="circle4869" />
        <circle
           cx="50.75"
           cy="23.75"
           r="0.69999999"
           id="circle4871" />
        <circle
           cx="49.75"
           cy="21.75"
           r="0.75"
           id="circle4873" />
        <circle
           cx="51.5"
           cy="21"
           r="0.75"
           id="circle4875" />
        <circle
           cx="51.5"
           cy="21"
           r="0.75"
           id="circle4877" />
        <circle
           cx="52.5"
           cy="23"
           r="0.75"
           id="circle4879" />
        <circle
           cx="53.75"
           cy="21"
           r="0.85000002"
           id="circle4881" />
        <circle
           cx="54.25"
           cy="23.5"
           r="0.85000002"
           id="circle4883" />
        <circle
           cx="55.5"
           cy="22"
           r="0.89999998"
           id="circle4885" />
        <circle
           cx="55.75"
           cy="25.25"
           r="0.89999998"
           id="circle4887" />
        <circle
           cx="57.25"
           cy="23.5"
           r="0.89999998"
           id="circle4889" />
      </g>
    </symbol>
    <symbol
       id="DrinkingFountain_Inv">
      <title
         id="title4892">Drinking Fountain</title>
      <rect
         x="0.5"
         y="0.5"
         width="71"
         height="71"
         ry="6"
         style="stroke:#ffffff"
         id="rect4894" />
      <g
         style="fill:#ffffff;stroke:none"
         id="g4896">
        <circle
           cx="45"
           cy="16"
           r="5.5"
           id="circle4898" />
        <path
           d="m 34,28.5 0,5 a 2.5,2.5 0 0 0 0.75,1.75 l 6.5,6.5 a 2.475,2.475 0 0 0 3.5,-3.5 L 39,32.5 l 0,-10 a 5.5,5.5 0 0 0 -8,-5 L 19,24 a 5,5 0 0 0 -3,5 l 0,32.5 a 4,4 0 0 0 8,0 l 0,-27 z"
           id="path4900"
           inkscape:connector-curvature="0" />
        <path
           d="m 54.5,45 7,0 0,-16 -17,0 a 2.5,2.5 0 0 0 -1.75,4.25 z"
           id="path4902"
           inkscape:connector-curvature="0" />
        <!-- Water Drops -->
        <circle
           cx="47.75"
           cy="27.25"
           r="0.69999999"
           id="circle4904" />
        <circle
           cx="49.5"
           cy="27.25"
           r="0.69999999"
           id="circle4906" />
        <circle
           cx="47.75"
           cy="25.25"
           r="0.69999999"
           id="circle4908" />
        <circle
           cx="49.75"
           cy="25.25"
           r="0.69999999"
           id="circle4910" />
        <circle
           cx="48.5"
           cy="23.25"
           r="0.69999999"
           id="circle4912" />
        <circle
           cx="50.75"
           cy="23.75"
           r="0.69999999"
           id="circle4914" />
        <circle
           cx="49.75"
           cy="21.75"
           r="0.75"
           id="circle4916" />
        <circle
           cx="51.5"
           cy="21"
           r="0.75"
           id="circle4918" />
        <circle
           cx="51.5"
           cy="21"
           r="0.75"
           id="circle4920" />
        <circle
           cx="52.5"
           cy="23"
           r="0.75"
           id="circle4922" />
        <circle
           cx="53.75"
           cy="21"
           r="0.85000002"
           id="circle4924" />
        <circle
           cx="54.25"
           cy="23.5"
           r="0.85000002"
           id="circle4926" />
        <circle
           cx="55.5"
           cy="22"
           r="0.89999998"
           id="circle4928" />
        <circle
           cx="55.75"
           cy="25.25"
           r="0.89999998"
           id="circle4930" />
        <circle
           cx="57.25"
           cy="23.5"
           r="0.89999998"
           id="circle4932" />
      </g>
    </symbol>
    <symbol
       id="LostAndFound">
      <title
         id="title4539">Lost and Found</title>
      <!-- Question Mark -->
      <path
         d="m 30.6,14.6 c 0,-3 0.6,-6.6 5.4,-6.6 2.4,0 4.8,1.8 4.8,4.2 0,2.4 -1.2,3.6 -2.4,4.2 -1.2,0.6 -2.4,1.2 -2.4,3 0,1.8 0,3.6 0,3.6 m 0,1.5 0,4"
         style="fill:none;stroke-width:4"
         id="path4541"
         inkscape:connector-curvature="0" />
      <!-- Umbrella -->
      <path
         d="m 51,28 -38,8 0,2 38,8 0,-7 8,0 a 3.5,3.5 0 0 1 0,7 2,2 0 0 0 0,4 7.5,7.5 0 0 0 0,-15 l -8,0 z"
         style="stroke:none"
         id="path4543"
         inkscape:connector-curvature="0" />
      <path
         d="m 12,38 -6,0 a 1,1 0 0 1 0,-2 l 6,0 z"
         style="stroke:none"
         id="path4545"
         inkscape:connector-curvature="0" />
      <!-- Glove -->
      <path
         d="m 49.5,56 a 1.5,1.5 0 0 1 1.5,1.5 l 0,7 -5,-1.5 -26,0 a 1.5,1.5 0 0 1 0,-3 l 13.5,0 0,-1 -13.5,0 a 1.5,1.5 0 0 1 0,-3 l 13.5,0 0,-1 -13.5,0 a 1.5,1.5 0 0 1 0,-3 l 13.5,0 0,-1 -13.5,0 a 1.5,1.5 0 0 1 0,-3 l 12,0 -4.5,-1.25 a 1.85,1.85 0 0 1 1,-3.5 L 51,48 51,52.5 A 1.5,1.5 0 0 1 49.5,54 l -2,0 a 1,1 0 0 0 0,2 z"
         style="stroke:none"
         id="path4547"
         inkscape:connector-curvature="0" />
    </symbol>
    <symbol
       id="Xnor_Gate">
      <title
         id="title6609">Xnor Gate</title>
      <path
         d="M 24.65625,70 45,70 C 65,70 75,50 75,50 75,50 70,30 45,30 l -20.34375,0 c 1.789926,3.094188 3.151364,6.453471 4.0625,10 C 29.54012,43.197121 30,46.545819 30,50 c 0,3.454181 -0.45988,6.802879 -1.28125,10 -0.911136,3.546529 -2.272574,6.905812 -4.0625,10 z"
         id="path6611"
         inkscape:connector-curvature="0" />
      <path
         d="m 80,50 c 0,1.380712 -1.119288,2.5 -2.5,2.5 -1.380712,0 -2.5,-1.119288 -2.5,-2.5 0,-1.380712 1.119288,-2.5 2.5,-2.5 1.380712,0 2.5,1.119288 2.5,2.5 z"
         id="path6613"
         inkscape:connector-curvature="0" />
      <path
         d="M 18.65625,70 C 22.629549,64.322431 25,57.455703 25,50 25,42.544297 22.629549,35.677569 18.65625,30"
         id="path6615"
         inkscape:connector-curvature="0" />
    </symbol>
  </defs>
  <sodipodi:namedview
     id="base"
     pagecolor="#ffffff"
     bordercolor="#666666"
     borderopacity="1.0"
     inkscape:pageopacity="0.0"
     inkscape:pageshadow="2"
     inkscape:zoom="1"
     inkscape:cx="225.74786"
     inkscape:cy="93.722399"
     inkscape:document-units="px"
     inkscape:current-layer="g4278"
     showgrid="false"
     inkscape:window-width="1920"
     inkscape:window-height="1024"
     inkscape:window-x="-4"
     inkscape:window-y="-4"
     inkscape:window-maximized="1" />
  <metadata
     id="metadata7">
    <rdf:RDF>
      <cc:Work
         rdf:about="">
        <dc:format>image/svg+xml</dc:format>
        <dc:type
           rdf:resource="http://purl.org/dc/dcmitype/StillImage" />
        <dc:title />
      </cc:Work>
    </rdf:RDF>
  </metadata>
  <g
     inkscape:label="Layer 1"
     inkscape:groupmode="layer"
     id="layer1"
     transform="translate(0,-692.36218)">
    <g
       id="g4278"
       transform="translate(-49.497475,476.58998)">
      <path
         inkscape:connector-curvature="0"
         style="fill:none;stroke:#000000;stroke-width:2;stroke-linecap:butt;stroke-linejoin:miter;stroke-miterlimit:4;stroke-dasharray:none;stroke-opacity:1"
         d="m 159.88429,248.99829 115.64779,0"
         id="path3059-0-7"
         sodipodi:nodetypes="cc" />
      <path
         inkscape:connector-curvature="0"
         style="fill:none;stroke:#000000;stroke-width:2;stroke-linecap:butt;stroke-linejoin:miter;stroke-miterlimit:4;stroke-dasharray:none;stroke-opacity:1"
         d="m 339.54434,248.99829 c 76.39036,0 95.48796,0 95.48796,0"
         id="path3059-0-7-8"
         sodipodi:nodetypes="cc" />
      <rect
         style="fill:none;stroke:#000000;stroke-width:2.99999952;stroke-linecap:square;stroke-miterlimit:4;stroke-dasharray:none;stroke-dashoffset:0;stroke-opacity:1"
         id="rect1311-6-7"
         width="56.999996"
         height="77"
         x="275.81918"
         y="230.48819" />
      <path
         sodipodi:nodetypes="cc"
         style="fill:none;stroke:#000000;stroke-width:2;stroke-linecap:butt;stroke-linejoin:miter;stroke-miterlimit:4;stroke-dasharray:none;stroke-opacity:1"
         d="m 275.1424,287.3972 -16,0"
         id="path3087-61-3"
         inkscape:connector-curvature="0" />
      <path
         sodipodi:nodetypes="cc"
         style="fill:none;stroke:#000000;stroke-width:1.93099999;stroke-linecap:butt;stroke-linejoin:miter;stroke-miterlimit:4;stroke-dasharray:none;stroke-opacity:1"
         d="m 331.46303,248.98819 9.37087,0"
         id="path3091-4-3"
         inkscape:connector-curvature="0" />
      <path
         inkscape:connector-curvature="0"
         style="fill:none;stroke:#000000;stroke-width:2;stroke-linecap:butt;stroke-linejoin:miter;stroke-miterlimit:4;stroke-dasharray:none;stroke-opacity:1"
         d="m 275.2049,282.22042 11.5,5 -11.5,5"
         id="path3888-6-6"
         sodipodi:nodetypes="ccc" />
      <text
         xml:space="preserve"
         style="font-style:normal;font-variant:normal;font-weight:normal;font-stretch:normal;font-size:15px;line-height:125%;font-family:Sans;-inkscape-font-specification:'Sans, Normal';text-align:start;letter-spacing:0px;word-spacing:0px;writing-mode:lr-tb;text-anchor:start;fill:#000000;fill-opacity:1;stroke:none;stroke-width:1px;stroke-linecap:butt;stroke-linejoin:miter;stroke-opacity:1"
         x="290.03268"
         y="245.61266"
         id="text3433"
         sodipodi:linespacing="125%"
         transform="scale(0.96867922,1.0323335)"><tspan
           sodipodi:role="line"
           id="tspan3435"
           x="290.03268"
           y="245.61266">D</tspan></text>
      <rect
         style="fill:none;stroke:#000000;stroke-width:2.99999952;stroke-linecap:square;stroke-miterlimit:4;stroke-dasharray:none;stroke-dashoffset:0;stroke-opacity:1"
         id="rect1311-6-0"
         width="56.999996"
         height="77"
         x="445.77591"
         y="230.55927" />
      <path
         sodipodi:nodetypes="cc"
         style="fill:none;stroke:#000000;stroke-width:2;stroke-linecap:butt;stroke-linejoin:miter;stroke-miterlimit:4;stroke-dasharray:none;stroke-opacity:1"
         d="m 445.27591,249.05926 -16,0"
         id="path3085-3-9"
         inkscape:connector-curvature="0" />
      <path
         sodipodi:nodetypes="cc"
         style="fill:none;stroke:#000000;stroke-width:2;stroke-linecap:butt;stroke-linejoin:miter;stroke-miterlimit:4;stroke-dasharray:none;stroke-opacity:1"
         d="m 445.09913,288.35215 -16.15468,0"
         id="path3087-61-9"
         inkscape:connector-curvature="0" />
      <path
         inkscape:connector-curvature="0"
         style="fill:none;stroke:#000000;stroke-width:2;stroke-linecap:butt;stroke-linejoin:miter;stroke-miterlimit:4;stroke-dasharray:none;stroke-opacity:1"
         d="m 445.33841,282.11472 11.5,5 -11.5,5"
         id="path3888-6-5"
         sodipodi:nodetypes="ccc" />
      <text
         xml:space="preserve"
         style="font-style:normal;font-variant:normal;font-weight:normal;font-stretch:normal;font-size:15px;line-height:125%;font-family:Sans;-inkscape-font-specification:'Sans, Normal';text-align:start;letter-spacing:0px;word-spacing:0px;writing-mode:lr-tb;text-anchor:start;fill:#000000;fill-opacity:1;stroke:none;stroke-width:1px;stroke-linecap:butt;stroke-linejoin:miter;stroke-opacity:1"
         x="465.64594"
         y="245.42516"
         id="text3433-8"
         sodipodi:linespacing="125%"
         transform="scale(0.96867922,1.0323335)"><tspan
           sodipodi:role="line"
           id="tspan3435-9"
           x="465.64594"
           y="245.42516">D</tspan></text>
      <text
         xml:space="preserve"
         style="font-style:normal;font-variant:normal;font-weight:normal;font-stretch:normal;font-size:15px;line-height:125%;font-family:Sans;-inkscape-font-specification:'Sans, Normal';text-align:start;letter-spacing:0px;word-spacing:0px;writing-mode:lr-tb;text-anchor:start;fill:#000000;fill-opacity:1;stroke:none;stroke-width:1px;stroke-linecap:butt;stroke-linejoin:miter;stroke-opacity:1"
         x="503.18564"
         y="245.27492"
         id="text3471-0"
         sodipodi:linespacing="125%"
         transform="scale(0.9681351,1.0329137)"><tspan
           sodipodi:role="line"
           id="tspan3473-6"
           x="503.18564"
           y="245.27492">Q</tspan></text>
      <path
         inkscape:connector-curvature="0"
         style="fill:none;stroke:#000000;stroke-width:2;stroke-linecap:butt;stroke-linejoin:miter;stroke-miterlimit:4;stroke-dasharray:none;stroke-opacity:1"
         d="m 160.32746,338.4983 124.4736,0"
         id="path3059-0-7-82"
         sodipodi:nodetypes="cc" />
      <path
         inkscape:connector-curvature="0"
         style="fill:none;stroke:#000000;stroke-width:2;stroke-linecap:butt;stroke-linejoin:miter;stroke-miterlimit:4;stroke-dasharray:none;stroke-opacity:1"
         d="m 310.7946,338.83669 119.70356,0"
         id="path3059-0-7-82-0"
         sodipodi:nodetypes="cc" />
      <path
         inkscape:connector-curvature="0"
         style="fill:none;stroke:#000000;stroke-width:2;stroke-linecap:butt;stroke-linejoin:miter;stroke-miterlimit:4;stroke-dasharray:none;stroke-opacity:1"
         d="m 159.2159,372.7483 313.27277,0"
         id="path3059-0-7-82-8-1"
         sodipodi:nodetypes="cc" />
      <path
         id="path3180-8-5-1"
         d="m 430.1066,339.80987 0,-12.42012 0,-38.97168"
         style="fill:none;stroke:#000000;stroke-width:2;stroke-linecap:butt;stroke-linejoin:miter;stroke-miterlimit:4;stroke-dasharray:none;stroke-opacity:1"
         inkscape:connector-curvature="0" />
      <text
         transform="scale(0.9681351,1.0329137)"
         sodipodi:linespacing="125%"
         id="text3471"
         y="245.39029"
         x="326.3949"
         style="font-style:normal;font-variant:normal;font-weight:normal;font-stretch:normal;font-size:15px;line-height:125%;font-family:Sans;-inkscape-font-specification:'Sans, Normal';text-align:start;letter-spacing:0px;word-spacing:0px;writing-mode:lr-tb;text-anchor:start;fill:#000000;fill-opacity:1;stroke:none;stroke-width:1px;stroke-linecap:butt;stroke-linejoin:miter;stroke-opacity:1"
         xml:space="preserve"><tspan
           y="245.39029"
           x="326.3949"
           id="tspan3473"
           sodipodi:role="line">Q</tspan></text>
      <text
         transform="scale(0.87611582,1.1414016)"
         sodipodi:linespacing="125%"
         id="text3531"
         y="263.98767"
         x="533.86945"
         style="font-style:normal;font-variant:normal;font-weight:normal;font-stretch:normal;font-size:15px;line-height:125%;font-family:Sans;-inkscape-font-specification:'Sans, Normal';text-align:start;letter-spacing:0px;word-spacing:0px;writing-mode:lr-tb;text-anchor:start;fill:#000000;fill-opacity:1;stroke:none;stroke-width:1px;stroke-linecap:butt;stroke-linejoin:miter;stroke-opacity:1"
         xml:space="preserve"><tspan
           y="263.98767"
           x="533.86945"
           id="tspan3533"
           sodipodi:role="line">R</tspan></text>
      <text
         transform="scale(0.87611582,1.1414016)"
         sodipodi:linespacing="125%"
         id="text3531-7"
         y="264.71671"
         x="337.01648"
         style="font-style:normal;font-variant:normal;font-weight:normal;font-stretch:normal;font-size:15px;line-height:125%;font-family:Sans;-inkscape-font-specification:'Sans, Normal';text-align:start;letter-spacing:0px;word-spacing:0px;writing-mode:lr-tb;text-anchor:start;fill:#000000;fill-opacity:1;stroke:none;stroke-width:1px;stroke-linecap:butt;stroke-linejoin:miter;stroke-opacity:1"
         xml:space="preserve"><tspan
           y="264.71671"
           x="337.01648"
           id="tspan3533-2"
           sodipodi:role="line">R</tspan></text>
      <path
         sodipodi:nodetypes="cc"
         style="fill:none;stroke:#000000;stroke-width:2;stroke-linecap:butt;stroke-linejoin:miter;stroke-miterlimit:4;stroke-dasharray:none;stroke-opacity:1"
         d="m 259.86174,339.09102 -0.0884,-52.70918"
         id="path4627-1-3-0"
         inkscape:connector-curvature="0" />
      <text
         transform="scale(1.0316896,0.96928378)"
         sodipodi:linespacing="125%"
         id="text4218"
         y="351.09332"
         x="128.2558"
         style="font-style:normal;font-variant:normal;font-weight:normal;font-stretch:normal;font-size:15px;line-height:125%;font-family:Sans;-inkscape-font-specification:'Sans, Normal';text-align:start;letter-spacing:0px;word-spacing:0px;writing-mode:lr-tb;text-anchor:start;fill:#000000;fill-opacity:1;stroke:none;stroke-width:1px;stroke-linecap:butt;stroke-linejoin:miter;stroke-opacity:1"
         xml:space="preserve"><tspan
           y="351.09332"
           x="128.2558"
           id="tspan4220"
           sodipodi:role="line">clk</tspan></text>
      <text
         transform="scale(0.91083019,1.0978995)"
         sodipodi:linespacing="125%"
         id="text4226"
         y="339.94183"
         x="65.415611"
         style="font-style:normal;font-variant:normal;font-weight:normal;font-stretch:normal;font-size:15px;line-height:125%;font-family:Sans;-inkscape-font-specification:'Sans, Normal';text-align:start;letter-spacing:0px;word-spacing:0px;writing-mode:lr-tb;text-anchor:start;fill:#000000;fill-opacity:1;stroke:none;stroke-width:1px;stroke-linecap:butt;stroke-linejoin:miter;stroke-opacity:1"
         xml:space="preserve"><tspan
           y="339.94183"
           x="65.415611"
           id="tspan4228"
           sodipodi:role="line">reset_input_n</tspan></text>
      <text
         transform="scale(0.96339857,1.037992)"
         sodipodi:linespacing="125%"
         id="text4222-2"
         y="241.05838"
         x="140.22432"
         style="font-style:normal;font-variant:normal;font-weight:normal;font-stretch:normal;font-size:15px;line-height:125%;font-family:Sans;-inkscape-font-specification:'Sans, Normal';text-align:start;letter-spacing:0px;word-spacing:0px;writing-mode:lr-tb;text-anchor:start;fill:#000000;fill-opacity:1;stroke:none;stroke-width:1px;stroke-linecap:butt;stroke-linejoin:miter;stroke-opacity:1"
         xml:space="preserve"><tspan
           y="241.05838"
           x="140.22432"
           id="tspan4224-4"
           sodipodi:role="line">'1'</tspan></text>
      <text
         transform="scale(0.8833603,1.1320409)"
         sodipodi:linespacing="125%"
         id="text4256"
         y="221.5237"
         x="607.92468"
         style="font-style:normal;font-variant:normal;font-weight:normal;font-stretch:normal;font-size:15px;line-height:125%;font-family:Sans;-inkscape-font-specification:'Sans, Normal';text-align:start;letter-spacing:0px;word-spacing:0px;writing-mode:lr-tb;text-anchor:start;fill:#000000;fill-opacity:1;stroke:none;stroke-width:1px;stroke-linecap:butt;stroke-linejoin:miter;stroke-opacity:1"
         xml:space="preserve"><tspan
           y="221.5237"
           x="607.92468"
           id="tspan4258"
           sodipodi:role="line">main_reset_n</tspan></text>
      <path
         sodipodi:nodetypes="cc"
         style="fill:none;stroke:#000000;stroke-width:2;stroke-linecap:butt;stroke-linejoin:miter;stroke-miterlimit:4;stroke-dasharray:none;stroke-opacity:1"
         d="m 472.4221,373.58431 0,-58.00503"
         id="path4627-1-9"
         inkscape:connector-curvature="0" />
      <path
         sodipodi:nodetypes="cc"
         style="fill:none;stroke:#000000;stroke-width:2;stroke-linecap:butt;stroke-linejoin:miter;stroke-miterlimit:4;stroke-dasharray:none;stroke-opacity:1"
         d="m 300.35408,373.267 0,-58.71805"
         id="path4627-1-1"
         inkscape:connector-curvature="0" />
      <path
         sodipodi:nodetypes="cc"
         style="fill:none;stroke:#000000;stroke-width:2;stroke-linecap:butt;stroke-linejoin:miter;stroke-miterlimit:4;stroke-dasharray:none;stroke-opacity:1"
         d="m 283.73592,339.13157 c 12.50565,-12.38452 20.45917,-7.14 27.92324,0"
         id="path3089-5-4-2-0-5"
         inkscape:connector-curvature="0" />
      <path
         inkscape:connector-curvature="0"
         style="fill:none;stroke:#000000;stroke-width:2;stroke-linecap:butt;stroke-linejoin:miter;stroke-miterlimit:4;stroke-dasharray:none;stroke-opacity:1"
         d="m 501.86727,248.67422 28.97361,0"
         id="path3059-0-7-82-5"
         sodipodi:nodetypes="cc" />
      <path
         style="fill:none;fill-rule:evenodd;stroke:#000000;stroke-width:0.82971472px;stroke-linecap:butt;stroke-linejoin:miter;stroke-opacity:1"
         d="m 162.34859,449.5724 13.72549,0 0,-27.1875 13.68248,0 0,27.25 13.94063,0 0,-27.37501 13.68248,0 0,27.12501 13.76853,0 0,-27.25001 13.59642,0 0,27.50001 13.59643,0 0,-27.62501 14.04259,0 0,27.51981 13.93439,0 0,-27.22361 13.63014,0 0,27.312 13.81271,0 0,-27.4004 13.75184,0 0,27.31201 13.69099,0 0,-27.40039 13.81271,0 0,27.31199 13.81269,0 0,-27.31199 13.81271,0 0,27.31199 13.69099,0 0,-27.31199 13.81269,0 0,27.48878 13.75185,0 0,-27.4004 13.81269,0 0,27.22361 13.63015,0 0,-27.31199 13.9344,0 0,27.40039 13.691,0 0,-27.31201 13.81269,0 0,27.22361 13.8127,0 0,-27.40038 13.75185,0 0,27.40038 13.69099,0 0,-27.13521 13.69101,0 0,27.22361 13.63015,0 0,-27.31201 13.87354,0 0,27.4004 13.75185,0 0,-27.66556 13.81269,0 0,27.48878 13.75184,0 0,-27.22362"
         id="path4435-0"
         inkscape:connector-curvature="0"
         sodipodi:nodetypes="ccccccccccccccccccccccccccccccccccccccccccccccccccccccccccccccccccc" />
      <path
         style="fill:none;fill-rule:evenodd;stroke:#000000;stroke-width:1px;stroke-linecap:butt;stroke-linejoin:miter;stroke-opacity:1"
         d="m 162.65623,472.12742 47.5625,-0.25 0,27.0625 169.75,0.25 0,-27.1875 235.72065,0.25"
         id="path4361"
         inkscape:connector-curvature="0"
         sodipodi:nodetypes="cccccc" />
      <text
         transform="scale(0.94332504,1.06008)"
         sodipodi:linespacing="125%"
         id="text4495-3-4"
         y="422.34482"
         x="139.07413"
         style="font-style:normal;font-variant:normal;font-weight:normal;font-stretch:normal;font-size:14.99999994px;line-height:125%;font-family:Sans;-inkscape-font-specification:'Sans, Normal';text-align:start;letter-spacing:0px;word-spacing:0px;writing-mode:lr;text-anchor:start;fill:#000000;fill-opacity:1;stroke:none;stroke-width:1px;stroke-linecap:butt;stroke-linejoin:miter;stroke-opacity:1;"
         xml:space="preserve"><tspan
           y="422.34482"
           x="139.07413"
           id="tspan4497-0-5"
           sodipodi:role="line">clk</tspan></text>
      <text
         transform="scale(0.91845667,1.088783)"
         sodipodi:linespacing="125%"
         id="text4539-1-2"
         y="457.28546"
         x="68.497063"
         style="font-style:normal;font-variant:normal;font-weight:normal;font-stretch:normal;font-size:15px;line-height:125%;font-family:Sans;-inkscape-font-specification:'Sans, Normal';text-align:start;letter-spacing:0px;word-spacing:0px;writing-mode:lr-tb;text-anchor:start;fill:#000000;fill-opacity:1;stroke:none;stroke-width:1px;stroke-linecap:butt;stroke-linejoin:miter;stroke-opacity:1"
         xml:space="preserve"><tspan
           y="457.28546"
           x="68.497063"
           id="tspan4541-6-2"
           sodipodi:role="line">reset_input_n</tspan></text>
      <text
         transform="scale(0.91845667,1.088783)"
         sodipodi:linespacing="125%"
         id="text4539-1-3-8"
         y="500.45554"
         x="64.715912"
         style="font-style:normal;font-variant:normal;font-weight:normal;font-stretch:normal;font-size:15px;line-height:125%;font-family:Sans;-inkscape-font-specification:'Sans, Normal';text-align:start;letter-spacing:0px;word-spacing:0px;writing-mode:lr-tb;text-anchor:start;fill:#000000;fill-opacity:1;stroke:none;stroke-width:1px;stroke-linecap:butt;stroke-linejoin:miter;stroke-opacity:1"
         xml:space="preserve"><tspan
           y="500.45554"
           x="64.715912"
           id="tspan4541-6-9-8"
           sodipodi:role="line">main_reset_n</tspan></text>
      <path
         style="fill:none;fill-rule:evenodd;stroke:#000000;stroke-width:1;stroke-linecap:butt;stroke-linejoin:miter;stroke-miterlimit:4;stroke-dasharray:1, 4;stroke-dashoffset:0;stroke-opacity:1"
         d="M 209.92134,412.85682 210.068,561.55534"
         id="path4403-8-4-0"
         inkscape:connector-curvature="0"
         sodipodi:nodetypes="cc" />
      <path
         style="fill:none;fill-rule:evenodd;stroke:#000000;stroke-width:1;stroke-linecap:butt;stroke-linejoin:miter;stroke-miterlimit:4;stroke-dasharray:1, 4;stroke-dashoffset:0;stroke-opacity:1"
         d="m 379.90428,412.69448 0.2931,95.92554"
         id="path4403-8-4-0-0"
         inkscape:connector-curvature="0"
         sodipodi:nodetypes="cc" />
      <path
         style="fill:none;fill-rule:evenodd;stroke:#000000;stroke-width:1;stroke-linecap:butt;stroke-linejoin:miter;stroke-miterlimit:4;stroke-dasharray:1, 4;stroke-dashoffset:0;stroke-opacity:1"
         d="m 396.28571,412.04311 -0.10334,149.44851"
         id="path4403-8-4-0-4"
         inkscape:connector-curvature="0"
         sodipodi:nodetypes="cc" />
      <path
         style="fill:none;fill-rule:evenodd;stroke:#000000;stroke-width:1px;stroke-linecap:butt;stroke-linejoin:miter;stroke-opacity:1"
         d="m 162.51143,520.01892 47.5625,-0.25 0,27.0625 214.00001,-0.25 0,-26.6875 191.62498,-0.25"
         id="path4361-0"
         inkscape:connector-curvature="0"
         sodipodi:nodetypes="cccccc" />
      <path
         style="fill:none;fill-rule:evenodd;stroke:#000000;stroke-width:1;stroke-linecap:butt;stroke-linejoin:miter;stroke-miterlimit:4;stroke-dasharray:1, 4;stroke-dashoffset:0;stroke-opacity:1"
         d="m 423.90575,412.32497 0.39666,145.69851"
         id="path4403-8-4-0-4-0"
         inkscape:connector-curvature="0"
         sodipodi:nodetypes="cc" />
      <ellipse
         style="fill:none;fill-opacity:1;stroke:#000000;stroke-width:2;stroke-linecap:square;stroke-miterlimit:4;stroke-dasharray:none;stroke-dashoffset:0;stroke-opacity:1"
         id="path4273-9"
         cx="300.16681"
         cy="311.59497"
         rx="4.2426405"
         ry="3.8890872" />
      <ellipse
         style="fill:none;fill-opacity:1;stroke:#000000;stroke-width:2;stroke-linecap:square;stroke-miterlimit:4;stroke-dasharray:none;stroke-dashoffset:0;stroke-opacity:1"
         id="path4273-4"
         cx="472.34732"
         cy="311.59497"
         rx="4.2426405"
         ry="3.8890872" />
    </g>
  </g>
</svg>
